<?xml version="1.0" standalone="no"?>
<!DOCTYPE svg PUBLIC "-//W3C//DTD SVG 20010904//EN"
 "http://www.w3.org/TR/2001/REC-SVG-20010904/DTD/svg10.dtd">
<svg version="1.0" xmlns="http://www.w3.org/2000/svg"
 width="1053.000000pt" height="1053.000000pt" viewBox="0 0 1053.000000 1053.000000"
 preserveAspectRatio="xMidYMid meet">
<metadata>
Created by potrace 1.14, written by Peter Selinger 2001-2017
</metadata>
<g transform="translate(0.000000,1053.000000) scale(0.100000,-0.100000)"
fill="#000000" stroke="none">
<path d="M5199 10473 c0 -16 -2 -37 -5 -48 -2 -11 -6 -38 -9 -60 -8 -65 -18
-139 -21 -160 -7 -41 -14 -93 -25 -180 -6 -49 -13 -99 -15 -110 -2 -11 -6 -40
-9 -65 -5 -48 -10 -87 -25 -185 -5 -33 -11 -78 -14 -100 -3 -22 -8 -65 -12
-95 -3 -30 -8 -64 -10 -75 -4 -20 -9 -58 -18 -135 -4 -25 -8 -54 -10 -65 -2
-11 -7 -49 -11 -85 -4 -36 -8 -67 -10 -70 -2 -3 -6 -30 -9 -60 -4 -30 -9 -71
-12 -90 -9 -60 -12 -83 -18 -144 -3 -32 -8 -66 -10 -75 -3 -9 -8 -43 -12 -76
-9 -85 -11 -100 -18 -132 -3 -15 -8 -53 -11 -83 -4 -30 -8 -66 -10 -80 -2 -14
-6 -44 -9 -67 -12 -87 -16 -119 -21 -143 -3 -14 -8 -52 -11 -85 -4 -33 -7 -67
-9 -75 -16 -108 -21 -142 -35 -247 -6 -46 -13 -97 -15 -115 -3 -18 -8 -53 -11
-78 -3 -25 -7 -56 -9 -70 -2 -14 -7 -47 -11 -75 -3 -27 -8 -61 -10 -75 -2 -14
-6 -45 -9 -70 -5 -45 -14 -107 -21 -145 -2 -11 -6 -40 -9 -65 -10 -88 -24
-187 -30 -220 -2 -13 -7 -48 -10 -79 -3 -31 -10 -83 -15 -116 -10 -67 -17
-119 -25 -184 -3 -23 -8 -57 -11 -75 -3 -17 -7 -44 -9 -61 -5 -45 -16 -126
-21 -160 -2 -16 -7 -50 -9 -75 -3 -25 -8 -56 -11 -70 -2 -14 -7 -47 -10 -75
-3 -27 -7 -61 -10 -75 -6 -29 -11 -66 -18 -135 -3 -27 -8 -61 -10 -75 -3 -14
-8 -45 -11 -70 -3 -25 -7 -58 -10 -75 -2 -16 -7 -53 -10 -81 -3 -28 -8 -62
-10 -75 -3 -13 -7 -44 -10 -69 -3 -25 -7 -54 -9 -65 -3 -11 -5 -32 -5 -46 l-1
-27 -1240 2 c-682 0 -1240 -2 -1240 -6 0 -4 51 -34 113 -67 61 -34 119 -65
127 -70 8 -5 49 -27 90 -49 41 -22 95 -52 120 -65 25 -14 86 -46 135 -72 50
-26 97 -53 105 -59 8 -6 49 -29 90 -50 41 -21 93 -48 115 -60 39 -22 180 -99
220 -120 11 -6 28 -17 38 -25 9 -8 17 -11 17 -6 0 4 6 3 13 -3 19 -16 677
-372 688 -372 5 0 9 -3 9 -8 0 -4 17 -15 38 -24 35 -17 122 -64 149 -81 10 -6
9 -16 -2 -45 -11 -29 -184 -562 -251 -772 -8 -25 -17 -52 -21 -60 -3 -8 -7
-17 -8 -20 0 -3 -9 -32 -20 -65 -10 -33 -20 -64 -21 -70 -2 -5 -22 -64 -44
-130 -22 -66 -42 -128 -43 -137 0 -10 -4 -18 -7 -18 -4 0 -7 -6 -7 -12 0 -7
-26 -89 -57 -183 -32 -93 -59 -174 -60 -180 -1 -5 -15 -50 -31 -100 -16 -49
-30 -93 -31 -97 -1 -5 -2 -9 -3 -10 -1 -2 -16 -47 -34 -100 l-33 -98 24 16
c19 12 247 190 342 267 47 38 116 93 125 100 60 46 141 111 145 117 3 4 10 9
16 11 6 2 29 18 50 36 21 18 99 79 171 137 73 57 149 118 170 134 21 17 88 69
148 116 61 47 117 92 125 99 8 8 89 72 180 142 91 71 167 131 170 134 3 3 34
28 70 56 36 27 71 55 78 62 18 17 25 12 64 -45 18 -26 38 -53 44 -62 32 -39
84 -111 84 -115 0 -3 23 -34 50 -69 28 -35 50 -68 50 -74 0 -6 4 -12 8 -14 5
-1 45 -55 90 -118 45 -63 116 -161 157 -218 41 -57 75 -107 75 -112 0 -6 3
-10 8 -10 4 -1 22 -22 40 -48 62 -89 133 -187 147 -205 8 -9 15 -21 15 -27 0
-5 6 -13 13 -17 8 -4 22 -23 32 -41 11 -17 23 -32 27 -32 4 0 8 -5 8 -11 0 -6
6 -16 13 -23 6 -8 18 -22 25 -32 31 -47 134 -191 146 -205 14 -17 95 -132 111
-158 6 -9 12 -18 15 -21 3 -3 17 -21 30 -40 13 -19 27 -37 30 -40 3 -3 25 -34
50 -70 24 -36 48 -69 52 -75 12 -14 113 -154 140 -193 13 -18 29 -39 36 -47 6
-7 12 -18 12 -23 0 -6 3 -12 8 -14 4 -1 41 -50 82 -108 41 -58 77 -107 80
-110 4 -3 21 -27 40 -55 19 -27 54 -78 79 -111 25 -34 53 -72 61 -84 26 -38
138 -194 154 -215 18 -22 95 -130 157 -219 23 -33 50 -69 60 -80 11 -11 19
-24 19 -30 0 -5 7 -16 15 -25 8 -9 25 -27 36 -41 11 -14 18 -20 16 -15 -7 15
-59 184 -57 187 0 2 -8 29 -19 61 -11 31 -17 57 -14 57 3 0 1 6 -4 13 -8 9
-34 91 -38 117 -1 3 -14 46 -30 95 -16 50 -29 96 -31 103 -1 6 -14 51 -29 99
-15 47 -28 91 -29 97 -1 6 -9 34 -18 61 -9 28 -30 96 -47 153 -44 145 -91 302
-102 337 -43 141 -68 223 -72 240 -3 11 -24 81 -47 155 -23 74 -43 140 -44
145 -1 6 -7 26 -13 45 -6 19 -24 80 -41 135 -17 55 -44 145 -61 200 -17 56
-31 108 -31 117 0 9 -4 19 -9 22 -4 3 -12 20 -16 38 -4 18 -9 38 -11 43 -1 6
-5 20 -8 33 -3 12 -7 26 -10 31 -3 5 -12 33 -20 62 -8 30 -32 111 -54 182 -22
70 -37 127 -35 127 3 0 1 6 -4 13 -6 6 -13 26 -17 42 -4 17 -18 66 -33 110
-14 44 -26 85 -27 90 -5 22 -28 98 -47 157 -11 35 -23 74 -25 87 -3 14 -7 28
-10 33 -3 4 -7 16 -9 25 -5 24 -64 224 -72 243 -3 8 -7 22 -9 30 -2 8 -12 41
-22 73 l-20 58 22 11 c11 6 44 23 71 38 52 28 281 148 375 197 30 15 57 31 58
36 2 4 12 7 22 7 10 0 20 3 22 8 2 4 41 27 88 51 47 24 137 71 200 104 63 33
151 78 195 101 44 22 82 43 85 46 3 3 46 25 95 50 50 25 92 47 95 50 3 3 32
19 65 35 157 80 310 161 315 166 6 6 31 16 44 17 5 0 12 4 15 9 3 4 38 24 76
44 39 20 124 65 190 99 66 34 123 65 127 69 4 3 -558 5 -1248 5 -1153 -2
-1255 0 -1263 15 -4 9 -12 43 -16 76 -14 119 -16 130 -20 150 -13 64 -25 134
-31 191 -3 27 -6 56 -8 64 -13 68 -22 123 -32 200 -3 19 -7 46 -9 60 -3 14 -8
48 -11 75 -7 53 -12 80 -14 80 -1 0 -3 16 -5 35 -3 33 -10 75 -20 130 -3 14
-7 41 -9 60 -3 19 -8 51 -11 71 -3 20 -8 51 -10 70 -7 58 -16 112 -25 164 -9
52 -22 136 -25 170 -2 11 -8 49 -14 85 -6 36 -12 81 -15 100 -6 44 -14 99 -26
170 -6 30 -12 71 -15 90 -2 19 -7 53 -10 75 -3 22 -10 65 -15 95 -5 30 -12 71
-14 90 -3 19 -7 51 -10 70 -11 64 -37 235 -42 270 -2 19 -6 46 -9 60 -3 14 -7
45 -10 70 -3 25 -8 59 -11 75 -3 17 -7 44 -9 60 -2 17 -8 49 -13 72 -5 23 -7
44 -5 47 3 2 2 10 -2 17 -5 6 -9 28 -10 48 -2 20 -6 47 -9 61 -3 14 -8 45 -10
70 -7 62 -19 135 -32 200 -2 8 -6 35 -9 60 -7 59 -13 104 -20 138 -3 15 -7 47
-11 72 -3 25 -7 56 -10 70 -2 14 -6 40 -9 58 -3 17 -7 47 -10 65 -3 17 -7 43
-9 57 -3 14 -10 59 -16 100 -6 41 -13 91 -16 110 -3 19 -7 49 -9 65 -2 17 -5
31 -6 33 -3 4 -5 16 -13 82 -4 36 -9 72 -11 80 -4 18 -12 68 -20 125 -6 47
-13 89 -20 130 -9 49 -15 87 -20 138 -3 27 -7 52 -9 55 -2 4 -6 30 -10 57 -3
28 -8 59 -10 70 -2 12 -8 48 -12 80 -8 62 -10 73 -13 78 -1 1 -4 18 -6 37 -1
19 -8 69 -15 110 -7 41 -13 83 -13 93 -2 28 -17 19 -18 -10z"/>
</g>
</svg>
