<svg xmlns="http://www.w3.org/2000/svg" viewBox="0 0 64.88 21.71"><defs><style>.cls-1{fill:#fff;stroke:#fff;stroke-miterlimit:10;}</style></defs><g id="Calque_2" data-name="Calque 2"><g id="Calque_1-2" data-name="Calque 1"><circle class="cls-1" cx="32.44" cy="10.86" r="7.74" transform="translate(-1.69 13.11) rotate(-22.28)"/><path class="cls-1" d="M46.93,16.14a.45.45,0,0,1-.31-.11.49.49,0,0,1-.08-.7,7.23,7.23,0,0,0,0-8.95.5.5,0,0,1,.08-.7.51.51,0,0,1,.71.08,8.22,8.22,0,0,1,0,10.19A.5.5,0,0,1,46.93,16.14Z"/><path class="cls-1" d="M53.69,18.68a.51.51,0,0,1-.31-.11.5.5,0,0,1-.08-.71,11.31,11.31,0,0,0,0-14,.5.5,0,1,1,.78-.62,12.27,12.27,0,0,1,0,15.26A.49.49,0,0,1,53.69,18.68Z"/><path class="cls-1" d="M60.45,21.21a.45.45,0,0,1-.31-.11.5.5,0,0,1-.09-.7,15.38,15.38,0,0,0,0-19.09.5.5,0,0,1,.79-.62,16.36,16.36,0,0,1,0,20.33A.48.48,0,0,1,60.45,21.21Z"/><path class="cls-1" d="M17.94,16.14a.48.48,0,0,1-.39-.19,8.22,8.22,0,0,1,0-10.19.5.5,0,0,1,.79.62,7.2,7.2,0,0,0,0,9,.5.5,0,0,1-.09.7A.45.45,0,0,1,17.94,16.14Z"/><path class="cls-1" d="M11.19,18.68a.53.53,0,0,1-.4-.19,12.31,12.31,0,0,1,0-15.26.51.51,0,0,1,.71-.09.52.52,0,0,1,.08.71,11.28,11.28,0,0,0,0,14,.52.52,0,0,1-.08.71A.56.56,0,0,1,11.19,18.68Z"/><path class="cls-1" d="M4.43,21.21A.5.5,0,0,1,4,21,16.4,16.4,0,0,1,4,.69.51.51,0,0,1,4.74.61a.5.5,0,0,1,.08.7,15.38,15.38,0,0,0,0,19.09.49.49,0,0,1-.08.7A.45.45,0,0,1,4.43,21.21Z"/></g></g></svg>