<?xml version="1.0" encoding="utf-8"?>
<!-- Generator: Adobe Illustrator 25.2.1, SVG Export Plug-In . SVG Version: 6.00 Build 0)  -->
<svg version="1.1" id="Calque_1" xmlns="http://www.w3.org/2000/svg" xmlns:xlink="http://www.w3.org/1999/xlink" x="0px" y="0px"
	 viewBox="0 0 253.6 37.5" style="enable-background:new 0 0 253.6 37.5;" xml:space="preserve">
<style type="text/css">
	.st0{fill:#FFFFFF;}
</style>
<g>
	<g>
		<g>
			<path class="st0" d="M185.6,32.5c-2.1,0-3.9-1.7-3.9-3.9l0-5.3c-0.8-0.1-1.5-0.5-2.1-1.1c-0.7-0.7-1.1-1.7-1.1-2.7l0-3.2
				c0-0.2,0.1-0.3,0.2-0.5s0.3-0.2,0.5-0.2l0.6,0l0-2.6c0-0.2,0.1-0.3,0.2-0.5c0.1-0.1,0.3-0.2,0.5-0.2c0.4,0,0.7,0.3,0.7,0.7l0,2.6
				l2.6,0l0-2.6c0-0.2,0.1-0.3,0.2-0.5c0.1-0.1,0.3-0.2,0.5-0.2c0.4,0,0.7,0.3,0.7,0.7l0,2.6l0.6,0h0c0.4,0,0.6,0.3,0.6,0.6l0,3.2
				c0,1-0.4,2-1.1,2.7c-0.6,0.6-1.3,1-2.1,1.1l0,5.3c0,1.4,1.2,2.6,2.6,2.6c0,0,0,0,0,0c0.7,0,1.3-0.3,1.8-0.8
				c0.5-0.5,0.8-1.1,0.8-1.8l0-3.2c0-0.2,0.1-0.3,0.2-0.5c0.1-0.1,0.3-0.2,0.5-0.2c0.4,0,0.7,0.3,0.7,0.7l0,3.2
				C189.5,30.8,187.7,32.5,185.6,32.5C185.6,32.5,185.6,32.5,185.6,32.5z M189.5,25.4L189.5,25.4L189.5,25.4z M179.7,16.9l0,2.6
				c0,0.7,0.3,1.3,0.8,1.8c0.5,0.5,1.1,0.7,1.7,0.8c0.1,0,0.1,0,0.2,0c0.7,0,1.3-0.3,1.7-0.8c0.5-0.5,0.8-1.1,0.8-1.8l0-2.6l-0.6,0
				c-0.1,0-0.1,0-0.2,0l-3.7,0c-0.1,0-0.1,0-0.2,0L179.7,16.9z M181,13L181,13L181,13z M184.9,13L184.9,13L184.9,13z"/>
		</g>
		<g>
			<path class="st0" d="M200,36c-1.2,0-2.4-0.5-3.3-1.4c-0.6-0.6-1-1.3-1.2-2.1l-1.8,0c0,0,0,0,0,0c-2.4,0-4-0.5-4.9-1.6
				c-0.7-0.8-0.7-1.7-0.7-2l0-9.3c0-1.7,1.2-2.4,2-2.4c6.6,0,8.8-1.6,9.8-2.3c3-2.2,5.6-2.6,5.7-2.6l0.1,0l7.9,0c0,0,0,0,0.1,0
				c11.5,0,18.4,5.6,19.6,6.6c11.3,2.5,12.1,4.4,12.3,5c0.1,0.3,0.1,0.6,0.1,0.8l0,5c0,2.5-2,3.4-3,3.5l-5.6,0
				c-0.8,1.5-2.3,2.6-4.2,2.6c0,0,0,0,0,0c-2.1,0-3.8-1.3-4.4-3.2l-24,0c-0.2,0.7-0.6,1.3-1.1,1.8C202.5,35.5,201.3,36,200,36
				C200,36,200,36,200,36z M200,28.3C200,28.3,200,28.3,200,28.3c-0.8,0-1.6,0.3-2.1,0.9s-0.9,1.3-0.9,2.1c0,0.8,0.3,1.6,0.9,2.1
				c0.6,0.6,1.3,0.9,2.1,0.9c0.8,0,1.6-0.3,2.1-0.9c0.6-0.6,0.9-1.3,0.9-2.1l0,0c0-0.8-0.3-1.6-0.9-2.1
				C201.6,28.6,200.8,28.3,200,28.3z M232.9,28.2C232.9,28.2,232.9,28.2,232.9,28.2c-1.7,0-3,1.4-3,3c0,1.7,1.4,3,3,3c0,0,0,0,0,0
				c1.7,0,3-1.4,3-3l0,0C235.9,29.6,234.6,28.2,232.9,28.2z M232.9,26.6c2.6,0,4.6,2.1,4.7,4.6l0,0c0,0.2,0,0.3,0,0.5l5.1,0
				c0.2,0,1.5-0.3,1.5-1.9l0-5.3c-0.3-0.4-1.9-1.9-11.4-4l-0.2,0l-0.2-0.2c-0.1-0.1-6.9-6.4-18.7-6.4c0,0,0,0-0.1,0l-7.8,0
				c-0.3,0.1-2.5,0.5-5,2.3c-1.1,0.8-3.6,2.6-10.7,2.6c-0.3,0-0.4,0.4-0.4,0.8l0,9.4l0,0.1l0,0c0,0,0,0.4,0.3,0.8
				c0.4,0.5,1.4,1,3.7,1c0,0,0,0,0,0l1.6,0c0.1-1.1,0.6-2.1,1.3-2.9c0.9-0.9,2-1.4,3.3-1.4c0,0,0,0,0,0c1.2,0,2.4,0.5,3.3,1.4
				c0.8,0.8,1.3,1.9,1.4,3.1l23.6,0C228.3,28.6,230.4,26.6,232.9,26.6C232.9,26.6,232.9,26.6,232.9,26.6z"/>
		</g>
	</g>
	<g>
		<path class="st0" d="M203.9,21.3l-2.3-2.3c-0.3-0.3-0.3-0.8,0-1.1c0.3-0.3,0.8-0.3,1.1,0l1.8,1.8l24-0.1c0,0,0,0,0,0
			c0.4,0,0.8,0.4,0.8,0.8c0,0.4-0.4,0.8-0.8,0.8L203.9,21.3z"/>
	</g>
	<g>
		
			<rect x="212.6" y="13.1" transform="matrix(1 -2.122997e-03 2.122997e-03 1 -3.521755e-02 0.4532)" class="st0" width="1.6" height="7.4"/>
	</g>
	<g>
		<g>
			<path class="st0" d="M240.9,27.8c-0.4,0-0.8-0.4-0.8-0.8s0.4-0.8,0.8-0.8l3.8,0c0,0,0,0,0,0c0.4,0,0.8,0.4,0.8,0.8
				s-0.4,0.8-0.8,0.8L240.9,27.8C240.9,27.8,240.9,27.8,240.9,27.8z M189.1,27.5c-0.4,0-0.8-0.4-0.8-0.8c0-0.4,0.4-0.8,0.8-0.8
				l3.8,0c0,0,0,0,0,0c0.4,0,0.8,0.4,0.8,0.8c0,0.4-0.4,0.8-0.8,0.8L189.1,27.5C189.1,27.5,189.1,27.5,189.1,27.5z"/>
		</g>
		<g>
			<path class="st0" d="M146,16.5l6.7,0l-0.8-4l-6,0L146,16.5z M153.7,18l-8.5,0c-0.4,0-0.8-0.4-0.8-0.8l0-5.6
				c0-0.4,0.4-0.8,0.8-0.8l7.4,0c0.4,0,0.7,0.3,0.8,0.6l1.1,5.6c0,0.2,0,0.5-0.2,0.7C154.2,17.9,153.9,18,153.7,18"/>
		</g>
		<g>
			<path class="st0" d="M122.8,26.2c-1.1,0-2.1,0.4-2.9,1.2c-0.8,0.8-1.2,1.8-1.2,2.9c0,1.1,0.4,2.1,1.2,2.9
				c0.8,0.8,1.8,1.2,2.9,1.2c0,0,0,0,0,0c1.1,0,2.1-0.4,2.9-1.2c0.8-0.8,1.2-1.8,1.2-2.9c0-1.1-0.4-2.1-1.2-2.9
				C124.9,26.7,123.9,26.2,122.8,26.2C122.8,26.2,122.8,26.2,122.8,26.2 M122.8,36C122.8,36,122.8,36,122.8,36c-1.5,0-3-0.6-4-1.7
				c-1.1-1.1-1.7-2.5-1.7-4c0-1.5,0.6-2.9,1.7-4c1.1-1.1,2.5-1.7,4-1.7c0,0,0,0,0,0c1.5,0,2.9,0.6,4,1.7c1.1,1.1,1.7,2.5,1.7,4
				c0,1.5-0.6,2.9-1.7,4C125.7,35.4,124.3,36,122.8,36"/>
		</g>
		<g>
			<path class="st0" d="M110.7,26.3c-1.1,0-2.1,0.4-2.9,1.2c-0.8,0.8-1.2,1.8-1.2,2.9c0,1.1,0.4,2.1,1.2,2.9
				c0.8,0.8,1.8,1.2,2.9,1.2c0,0,0,0,0,0c1.1,0,2.1-0.4,2.9-1.2c0.8-0.8,1.2-1.8,1.2-2.9c0-1.1-0.4-2.1-1.2-2.9
				C112.9,26.7,111.8,26.3,110.7,26.3C110.8,26.3,110.7,26.3,110.7,26.3 M110.8,36C110.8,36,110.7,36,110.8,36c-1.5,0-3-0.6-4-1.7
				c-1.1-1.1-1.7-2.5-1.7-4c0-1.5,0.6-2.9,1.7-4c1.1-1.1,2.5-1.7,4-1.7c0,0,0,0,0,0c1.5,0,2.9,0.6,4,1.7c1.1,1.1,1.7,2.5,1.7,4
				c0,1.5-0.6,2.9-1.7,4C113.7,35.4,112.3,36,110.8,36"/>
		</g>
		<g>
			<path class="st0" d="M152.7,26.3c-2.2,0-4.1,1.8-4.1,4.1c0,1.1,0.4,2.1,1.2,2.9c0.8,0.8,1.8,1.2,2.9,1.2c0,0,0,0,0,0
				c1.1,0,2.1-0.4,2.9-1.2c0.8-0.8,1.2-1.8,1.2-2.9C156.8,28.2,154.9,26.3,152.7,26.3C152.7,26.3,152.7,26.3,152.7,26.3 M152.7,36.1
				C152.7,36.1,152.7,36.1,152.7,36.1c-1.5,0-3-0.6-4-1.7c-1.1-1.1-1.7-2.5-1.7-4c0-3.1,2.6-5.7,5.7-5.7c0,0,0,0,0,0
				c3.1,0,5.7,2.6,5.7,5.7c0,1.5-0.6,2.9-1.7,4C155.6,35.5,154.2,36.1,152.7,36.1"/>
		</g>
		<g>
			<path class="st0" d="M147.4,20.6C147.4,20.6,147.4,20.6,147.4,20.6l-1.5,0c-0.4,0-0.8-0.4-0.8-0.8c0-0.4,0.4-0.8,0.8-0.8
				c0,0,0,0,0,0l1.5,0c0.4,0,0.8,0.4,0.8,0.8C148.2,20.2,147.9,20.6,147.4,20.6"/>
		</g>
		<g>
			<path class="st0" d="M162.4,23C162.4,23,162.4,23,162.4,23l-1.5,0c-0.4,0-0.8-0.4-0.8-0.8c0-0.4,0.4-0.8,0.8-0.8c0,0,0,0,0,0
				l1.5,0c0.4,0,0.8,0.4,0.8,0.8C163.2,22.6,162.9,23,162.4,23"/>
		</g>
		<g>
			<path class="st0" d="M106,31.1l-4.3,0c-0.4,0-0.8-0.2-1-0.4c-0.3-0.3-0.4-0.6-0.4-1l0-3.3l1.6,0l0,3.1l4.2,0L106,31.1z"/>
		</g>
		<g>
			<path class="st0" d="M161.5,31l-3.9,0c-0.4,0-0.8-0.4-0.8-0.8c0-0.4,0.4-0.8,0.8-0.8l3.9,0c0.1,0,0.1-0.1,0.1-0.1l0-9.2
				c0-0.1-0.1-0.3-0.3-0.3l-4.9-1c-0.3-0.1-0.5-0.3-0.6-0.6l-0.3-1.3c-0.5-2.2-1.4-5.5-1.6-6.5c-0.1-0.4-0.2-0.5-0.7-0.5l-10.7,0
				c-0.4,0-0.8-0.4-0.8-0.8c0-0.4,0.4-0.8,0.8-0.8l10.7,0c0.5,0,1.9,0,2.3,1.7c0.3,1,1.1,4.4,1.6,6.5l0.2,0.8l4.4,0.9
				c0.9,0.2,1.5,1,1.5,1.9l0,9.2C163.3,30.2,162.5,31,161.5,31"/>
		</g>
	</g>
	<g>
		
			<rect x="127.7" y="29.5" transform="matrix(1 -2.065913e-03 2.065913e-03 1 -6.225618e-02 0.2846)" class="st0" width="20.1" height="1.6"/>
	</g>
	<g>
		<g>
			<path class="st0" d="M141.7,27.2l-13.8,0l0-1.6l13,0l0-22.3L99.6,3.3l0,22.3l5.5,0l0,1.6l-6.3,0c-0.4,0-0.8-0.4-0.8-0.8l0-23.9
				c0-0.4,0.4-0.8,0.8-0.8l42.9-0.1c0.4,0,0.8,0.4,0.8,0.8l0,23.9C142.5,26.8,142.1,27.1,141.7,27.2"/>
		</g>
		<g>
			<path class="st0" d="M106.8,15.6c-0.1-0.1-0.3-0.2-0.5-0.2l-1.2,0l0,1.3l1.2,0c0.2,0,0.4-0.1,0.5-0.2c0.1-0.1,0.2-0.3,0.2-0.5
				C107,15.9,106.9,15.7,106.8,15.6 M106.7,12.8c-0.1-0.1-0.3-0.2-0.5-0.2l-1.1,0l0,1.2l1.1,0c0.2,0,0.4-0.1,0.5-0.2
				c0.1-0.1,0.2-0.3,0.2-0.4C106.9,13,106.8,12.9,106.7,12.8 M108.2,17.8c-0.4,0.4-1,0.6-1.7,0.6l-3.2,0l0-7.4l3.1,0
				c0.8,0,1.3,0.2,1.7,0.6c0.4,0.4,0.6,0.9,0.6,1.6c0,0.4-0.1,0.7-0.3,0.9c-0.2,0.2-0.4,0.4-0.5,0.6c0.1,0.1,0.2,0.1,0.3,0.2
				c0.1,0.1,0.2,0.2,0.3,0.3c0.1,0.1,0.2,0.3,0.2,0.5c0.1,0.2,0.1,0.4,0.1,0.6C108.8,16.8,108.6,17.4,108.2,17.8"/>
		</g>
	</g>
	<g>
		<path class="st0" d="M110,18.3l0-5.4l1.7,0l0,5.4L110,18.3z M110,12.2l0-1.3l1.7,0l0,1.3L110,12.2z"/>
	</g>
	<g>
		<g>
			<path class="st0" d="M115.8,14.8c0-0.2-0.1-0.3-0.2-0.4c-0.1-0.1-0.3-0.2-0.5-0.2c-0.2,0-0.4,0.1-0.5,0.2
				c-0.1,0.1-0.2,0.2-0.2,0.4c0,0.2,0,0.4,0,0.7c0,0.3,0,0.6,0,0.7c0,0.2,0.1,0.3,0.2,0.4c0.1,0.1,0.3,0.2,0.5,0.2
				c0.2,0,0.4-0.1,0.5-0.2c0.1-0.1,0.2-0.2,0.2-0.4c0-0.2,0-0.4,0-0.7C115.9,15.2,115.8,15,115.8,14.8 M117.4,16.8
				c-0.1,0.3-0.2,0.6-0.5,0.8c-0.2,0.2-0.4,0.4-0.7,0.5c-0.3,0.1-0.6,0.2-1.1,0.2c-0.4,0-0.8-0.1-1.1-0.2c-0.3-0.1-0.5-0.3-0.7-0.5
				c-0.2-0.3-0.4-0.5-0.5-0.8c-0.1-0.3-0.1-0.7-0.1-1.3c0-0.5,0-1,0.1-1.3c0.1-0.3,0.2-0.6,0.5-0.8c0.2-0.2,0.4-0.4,0.7-0.5
				c0.3-0.1,0.6-0.2,1.1-0.2c0.4,0,0.8,0.1,1.1,0.2c0.3,0.1,0.5,0.3,0.7,0.5c0.2,0.2,0.4,0.5,0.5,0.8c0.1,0.3,0.1,0.7,0.1,1.3
				C117.6,16.1,117.5,16.5,117.4,16.8"/>
		</g>
		<g>
			<path class="st0" d="M124,16.5c-0.1,0.4-0.3,0.7-0.6,1c-0.3,0.3-0.6,0.5-1,0.6c-0.3,0.1-0.7,0.2-1.2,0.2c-0.4,0-0.8-0.1-1.1-0.2
				c-0.3-0.1-0.6-0.3-0.9-0.6c-0.3-0.3-0.5-0.7-0.6-1.1c-0.1-0.4-0.1-1-0.1-1.8c0-0.8,0-1.4,0.1-1.8c0.1-0.4,0.3-0.8,0.6-1.1
				c0.3-0.3,0.6-0.5,0.9-0.6c0.3-0.1,0.7-0.2,1.1-0.2c0.5,0,0.9,0.1,1.2,0.2c0.3,0.1,0.6,0.3,0.9,0.5c0.2,0.2,0.4,0.5,0.5,0.8
				c0.1,0.3,0.2,0.6,0.3,0.9l-1.8,0c-0.1-0.3-0.2-0.5-0.4-0.6c-0.2-0.1-0.4-0.2-0.7-0.2c-0.2,0-0.3,0-0.4,0.1
				c-0.1,0.1-0.2,0.1-0.3,0.2c0,0.1-0.1,0.1-0.1,0.2c0,0.1-0.1,0.2-0.1,0.3c0,0.1,0,0.3-0.1,0.5c0,0.2,0,0.5,0,0.8
				c0,0.3,0,0.6,0,0.8c0,0.2,0,0.4,0.1,0.5c0,0.1,0,0.2,0.1,0.3c0,0.1,0.1,0.1,0.1,0.2c0.2,0.2,0.4,0.3,0.7,0.3
				c0.4,0,0.6-0.1,0.8-0.3c0.1-0.1,0.2-0.2,0.2-0.4c0-0.1,0.1-0.3,0.1-0.4l0-0.1l-1.1,0l0-1.5l2.9,0l0,1
				C124.2,15.7,124.1,16.2,124,16.5"/>
		</g>
	</g>
	<g>
		<polygon class="st0" points="129.6,18.3 127.3,14.6 127.3,18.3 125.5,18.3 125.4,10.9 127,10.9 129.4,14.6 129.4,10.9 131.2,10.9 
			131.2,18.3 		"/>
	</g>
	<g>
		<polygon class="st0" points="135.7,18.3 134.4,18.3 131.9,10.9 133.8,10.9 135.1,15 136.3,10.9 138.2,10.9 		"/>
	</g>
	<g>
		<polygon class="st0" points="45.1,27.1 45.2,23.6 42.9,23.5 42.8,27.1 40.6,27 40.7,18.1 43,18.1 42.9,21.6 45.2,21.6 45.3,18.2 
			47.5,18.2 47.3,27.2 		"/>
	</g>
	<g>
		<g>
			<path class="st0" d="M48.7,28.7l0-1.1l1.9-2.1c0.1-0.1,0.2-0.2,0.2-0.3c0-0.1,0.1-0.2,0.1-0.3c0-0.1,0-0.3-0.1-0.4
				c-0.1-0.1-0.2-0.1-0.3-0.1c-0.1,0-0.2,0-0.3,0.1c-0.1,0.1-0.1,0.2-0.1,0.4l-1.2,0c0-0.5,0.2-0.9,0.5-1.2c0.3-0.3,0.7-0.4,1.2-0.4
				c0.5,0,0.9,0.1,1.2,0.4c0.3,0.3,0.5,0.7,0.5,1.2c0,0.3,0,0.5-0.1,0.6c-0.1,0.2-0.3,0.4-0.5,0.6l-1.2,1.3l1.9,0l0,1.1L48.7,28.7z"
				/>
		</g>
		<g>
			<path class="st0" d="M72.4,36.2C72.4,36.2,72.3,36.2,72.4,36.2c-1.5,0-3-0.6-4-1.7c-1.1-1.1-1.7-2.5-1.6-4c0-3.1,2.5-5.6,5.7-5.6
				c0,0,0,0,0,0c3.1,0,5.7,2.6,5.6,5.7c0,1.5-0.6,2.9-1.7,4C75.3,35.7,73.9,36.2,72.4,36.2z M72.4,26.2c-2.4,0-4.4,2-4.4,4.4
				c0,1.2,0.4,2.3,1.3,3.1c0.8,0.8,1.9,1.3,3.1,1.3c1.1,0,2.3-0.4,3.1-1.3c0.8-0.8,1.3-1.9,1.3-3.1l0,0
				C76.7,28.2,74.8,26.2,72.4,26.2C72.4,26.2,72.4,26.2,72.4,26.2z M21,35.9C21,35.9,21,35.9,21,35.9c-1.5,0-3-0.6-4-1.7
				c-1.1-1.1-1.7-2.5-1.6-4c0-3.1,2.5-5.6,5.7-5.6c0,0,0,0,0,0c1.5,0,2.9,0.6,4,1.7c1.1,1.1,1.7,2.5,1.6,4c0,1.5-0.6,2.9-1.7,4
				C24,35.3,22.5,35.9,21,35.9z M21,25.9c-2.4,0-4.4,2-4.4,4.4c0,1.2,0.4,2.3,1.3,3.1c0.8,0.8,1.9,1.3,3.1,1.3c0,0,0,0,0,0
				c1.2,0,2.3-0.5,3.1-1.3c0.8-0.8,1.3-1.9,1.3-3.1l0,0c0-1.2-0.4-2.3-1.3-3.1S22.2,25.9,21,25.9C21,25.9,21,25.9,21,25.9z
				 M11.2,15.9c-0.2,0-0.4-0.1-0.5-0.2c-0.1-0.1-0.2-0.3-0.2-0.5l0.5-7.5c0-0.3,0.3-0.6,0.6-0.6l8.7,0c0.1,0,0.3,0.1,0.5,0.2
				c0.1,0.1,0.2,0.3,0.2,0.5l0,7.5c0,0.4-0.3,0.6-0.6,0.6L11.2,15.9C11.2,15.9,11.2,15.9,11.2,15.9z M12.4,8.4l-0.4,6.2l7.9,0l0-6.2
				L12.4,8.4z"/>
		</g>
		<g>
			<path class="st0" d="M77.4,31.1c-0.4,0-0.6-0.3-0.6-0.6c0-0.4,0.3-0.6,0.6-0.6l4,0c0.2,0,0.3-0.1,0.3-0.3l0-0.7l-0.9,0
				c-0.4,0-0.6-0.3-0.6-0.6c0-0.4,0.3-0.6,0.6-0.6c0,0,0,0,0,0l0.9,0l0-11.4c-0.1-0.7-2.6-9.2-3.4-10.8L8.2,5.4L6.7,17.7l0,6.8
				l9.6,4.4c0.3,0.1,0.5,0.5,0.3,0.9c-0.1,0.3-0.5,0.5-0.9,0.3l-10-4.5c-0.2-0.1-0.4-0.3-0.4-0.6l0-7.3L7,4.7c0-0.3,0.3-0.6,0.6-0.6
				l71-0.2c0,0,0,0,0,0c0.5,0,0.8,0.1,2.7,6c0,0.1,1.7,5.5,1.7,6.1l0,13.4c0,0.9-0.7,1.6-1.6,1.6L77.4,31.1
				C77.4,31.1,77.4,31.1,77.4,31.1z"/>
		</g>
	</g>
	<g>
		<path class="st0" d="M26.4,31.2l0-1.3l40.9-0.1l0,1.3L26.4,31.2z M23.8,17.8c-0.2,0-0.3-0.1-0.5-0.2c-0.1-0.1-0.2-0.3-0.2-0.5
			l0-9.5c0-0.4,0.3-0.6,0.6-0.6l8.6,0c0,0,0,0,0,0c0.2,0,0.3,0.1,0.5,0.2c0.1,0.1,0.2,0.3,0.2,0.5l0,9.5c0,0.4-0.3,0.6-0.6,0.6
			L23.8,17.8C23.8,17.8,23.8,17.8,23.8,17.8z M24.5,8.3l0,8.2l7.3,0l0-8.2L24.5,8.3z M35.7,17.8c-0.4,0-0.6-0.3-0.6-0.6l0-9.5
			c0-0.2,0.1-0.3,0.2-0.5S35.5,7,35.7,7l8.6,0c0,0,0,0,0,0c0.4,0,0.6,0.3,0.6,0.6l0,9.5c0,0.2-0.1,0.3-0.2,0.5s-0.3,0.2-0.5,0.2
			L35.7,17.8C35.7,17.8,35.7,17.8,35.7,17.8z M36.4,8.3l0,8.2l7.3,0l0-8.2L36.4,8.3z M47.6,17.8c-0.4,0-0.6-0.3-0.6-0.6l0-9.5
			c0-0.2,0.1-0.3,0.2-0.5S47.4,7,47.6,7l8.6,0c0,0,0,0,0,0c0.4,0,0.6,0.3,0.6,0.6l0,9.5c0,0.2-0.1,0.3-0.2,0.5s-0.3,0.2-0.5,0.2
			L47.6,17.8C47.6,17.8,47.6,17.8,47.6,17.8z M48.2,8.3l0,8.2l7.3,0l0-8.2L48.2,8.3z M60.3,17.8c-0.2,0-0.3-0.1-0.5-0.2
			c-0.1-0.1-0.2-0.3-0.2-0.5l0-9.5c0-0.4,0.3-0.6,0.6-0.6l8.6,0c0,0,0,0,0,0c0.4,0,0.6,0.3,0.6,0.6l0,9.5c0,0.2-0.1,0.3-0.2,0.5
			s-0.3,0.2-0.5,0.2L60.3,17.8C60.3,17.8,60.3,17.8,60.3,17.8z M60.9,8.3l0,8.2l7.3,0l0-8.2L60.9,8.3z"/>
	</g>
	<g>
		<path class="st0" d="M77.8,25.9c-0.2,0-0.4-0.1-0.5-0.3l-4.4-6.8c-0.1-0.1-0.1-0.2-0.1-0.4l0-10.8c0-0.4,0.3-0.6,0.6-0.6l5.7,0
			c0,0,0,0,0,0c0.4,0,0.6,0.3,0.6,0.6c0,0.4-0.3,0.6-0.6,0.6l-5.1,0l0,10l4.1,6.4l3.7,0c0,0,0,0,0,0c0.4,0,0.6,0.3,0.6,0.6
			c0,0.4-0.3,0.6-0.6,0.6L77.8,25.9C77.8,25.9,77.8,25.9,77.8,25.9z"/>
	</g>
</g>
</svg>
