<?xml version="1.0" encoding="utf-8"?>
<!-- Generator: Adobe Illustrator 26.0.2, SVG Export Plug-In . SVG Version: 6.00 Build 0)  -->
<svg version="1.1" id="Calque_1" xmlns="http://www.w3.org/2000/svg" xmlns:xlink="http://www.w3.org/1999/xlink" x="0px" y="0px"
	 viewBox="0 0 290.6 290.6" style="enable-background:new 0 0 290.6 290.6;" xml:space="preserve">
<style type="text/css">
	.st0{fill:#973630;}
	.st1{fill:#FFFFFF;}
	.st2{fill:none;stroke:#9D9D9C;stroke-width:4;stroke-miterlimit:10;}
	.st3{fill:#973630;stroke:#FFFFFF;stroke-width:3.7369;stroke-linecap:round;stroke-linejoin:round;stroke-miterlimit:10;}
</style>
<g>
	<circle class="st0" cx="145.3" cy="145.3" r="124"/>
	<g>
		<path class="st1" d="M126.6,82.5c-1.3-0.2-2.5-0.6-3.5-1.2s-2-1.3-2.8-2.2s-1.5-1.9-2-3s-0.7-2.3-0.8-3.6l8.8-2.4
			c0.1,0.6,0.2,1.3,0.4,1.7c0.2,0.4,0.5,0.8,1,0.8c0.7,0.1,1.2-0.1,1.5-0.7c0.2-0.6,0.5-1.4,0.6-2.5l3.2-21.1l10.3,1.5l-3.4,22
			c-0.3,1.8-0.8,3.5-1.4,5c-0.7,1.5-1.5,2.7-2.6,3.7c-1.1,0.9-2.3,1.5-3.8,1.9C130.4,82.9,128.5,82.8,126.6,82.5z"/>
		<path class="st1" d="M147.7,50.5l18,2.7l-1.4,9.1l-8.1-1.3l-0.5,3.4l7.3,1.1l-1.3,8.4l-7.3-1.1l-0.5,3.5l8.7,1.3l-1.4,9.3
			L142.7,84L147.7,50.5z"/>
		<path class="st1" d="M176.2,90.3c-2.2-0.4-4.1-0.9-5.5-1.9s-2.5-2.2-3.4-3.5c-0.8-1.4-1.3-3-1.5-4.8c-0.1-1.8-0.1-3.7,0.2-5.6
			l3.2-20.4l10.4,1.6l-3,19.6c-0.2,1.6-0.3,2.8-0.2,3.7c0.2,0.9,0.7,1.4,1.6,1.5s1.5-0.2,1.9-1s0.7-2,1-3.6l3-19.6l10.3,1.5
			L191,78.2c-0.3,2-0.9,3.8-1.6,5.5c-0.8,1.6-1.7,3-2.9,4.1s-2.7,1.9-4.3,2.3C180.4,90.6,178.5,90.6,176.2,90.3z"/>
		<path class="st1" d="M61.7,98.8c0.3-1.9,0.8-3.7,1.6-5.3c0.7-1.6,1.7-2.9,2.8-3.9s2.4-1.8,3.7-2.3c1.4-0.5,2.9-0.6,4.6-0.3
			c1.5,0.2,2.7,0.7,3.7,1.3c1,0.6,1.8,1.3,2.4,2.1l-4.8,6.9c-0.3-0.6-0.9-1-1.7-1.1c-0.6-0.1-1.3,0.2-1.9,0.8
			c-0.7,0.6-1,1.7-1.3,3.3c-0.2,1.6-0.1,2.7,0.3,3.5s0.9,1.2,1.6,1.3c0.8,0.1,1.4,0,1.9-0.6l2.5,8.1c-0.9,0.5-1.8,1-3,1.2
			s-2.5,0.4-4,0.1c-1.6-0.2-3.1-0.8-4.3-1.6c-1.2-0.9-2.2-2-2.9-3.3s-1.2-2.9-1.5-4.6C61.3,102.7,61.4,100.9,61.7,98.8z"/>
		<path class="st1" d="M88.9,117.1c-1.7-0.3-3.3-0.8-4.6-1.7c-1.3-0.9-2.3-2-3.2-3.4c-0.8-1.4-1.3-3-1.6-4.7
			c-0.2-1.8-0.3-3.6,0.1-5.6c0.3-2,0.9-3.8,1.7-5.4c0.8-1.6,1.8-2.9,2.9-3.9c1.2-1.1,2.6-1.8,4.1-2.3s3.1-0.5,5-0.3
			c1.8,0.3,3.3,0.8,4.7,1.8c1.3,0.9,2.3,2,3.2,3.4c0.8,1.4,1.3,3,1.6,4.7c0.2,1.8,0.2,3.6-0.1,5.6c-0.3,1.9-0.9,3.8-1.7,5.3
			s-1.8,2.9-2.9,4c-1.2,1.1-2.5,1.8-4,2.3C92.3,117.3,90.7,117.3,88.9,117.1z M91.7,98.3c-0.7-0.1-1.4,0.3-1.9,1.2
			c-0.6,1-0.9,2.2-1.1,3.5c-0.1,0.7-0.2,1.4-0.1,2c0,0.6,0.1,1.2,0.1,1.7c0.1,0.5,0.3,0.9,0.6,1.2c0.2,0.3,0.6,0.5,1,0.6
			s0.8,0,1.2-0.3c0.3-0.2,0.7-0.6,0.9-1c0.2-0.5,0.5-0.9,0.7-1.6c0.1-0.6,0.3-1.3,0.4-1.9c0.3-1.4,0.2-2.6,0-3.7
			C93,99,92.5,98.4,91.7,98.3z"/>
		<path class="st1" d="M107.7,93l9.4,1.4l-0.5,3.1h0.2c0.6-1,1.4-1.8,2.5-2.5c1.2-0.6,2.6-0.8,4.1-0.6c1.6,0.2,2.7,0.7,3.5,1.4
			c0.8,0.8,1.4,1.7,1.8,2.8c0.4,1.1,0.5,2.3,0.5,3.8c-0.1,1.4-0.2,2.8-0.4,4.3l-2.3,15.2l-9.7-1.5l2.3-15.2c0.1-0.8,0.1-1.6-0.1-2.1
			c-0.1-0.5-0.5-0.8-1.1-0.9s-1.1,0.1-1.4,0.6s-0.6,1-0.8,1.9l-2.3,15.2l-9.7-1.5L107.7,93z"/>
		<path class="st1" d="M131.6,109.5c0.3-1.9,0.8-3.7,1.6-5.3c0.7-1.6,1.7-2.9,2.8-3.9c1.1-1.1,2.4-1.8,3.7-2.3
			c1.4-0.5,2.9-0.6,4.6-0.3c1.5,0.2,2.7,0.7,3.7,1.3c1,0.6,1.8,1.3,2.4,2.1l-4.8,6.9c-0.3-0.6-0.9-1-1.7-1.1
			c-0.6-0.1-1.3,0.2-1.9,0.8c-0.7,0.6-1,1.7-1.3,3.3c-0.2,1.6-0.1,2.7,0.3,3.5s0.9,1.2,1.6,1.3c0.8,0.1,1.4,0,1.9-0.6l2.5,8.1
			c-0.9,0.5-1.8,1-3,1.2s-2.5,0.4-4,0.1c-1.6-0.2-3.1-0.8-4.3-1.6c-1.2-0.9-2.2-2-2.9-3.3s-1.2-2.9-1.5-4.6
			C131.3,113.4,131.3,111.5,131.6,109.5z"/>
		<path class="st1" d="M158.8,127.8c-1.7-0.3-3.3-0.8-4.6-1.7c-1.3-0.9-2.3-2-3.2-3.4c-0.8-1.4-1.3-3-1.6-4.7s-0.3-3.6,0.1-5.6
			c0.3-2,0.9-3.8,1.7-5.4s1.8-2.9,2.9-3.9c1.2-1.1,2.6-1.8,4.1-2.3s3.1-0.5,5-0.3c1.8,0.3,3.3,0.8,4.7,1.8c1.3,0.9,2.3,2,3.2,3.4
			s1.3,3,1.6,4.7c0.2,1.7,0.2,3.6-0.1,5.6c-0.3,1.9-0.9,3.8-1.7,5.3c-0.8,1.6-1.8,2.9-2.9,4c-1.2,1.1-2.5,1.8-4,2.3
			C162.3,128,160.6,128,158.8,127.8z M161.7,109c-0.7-0.1-1.4,0.3-1.9,1.2c-0.6,1-0.9,2.2-1.1,3.5c-0.1,0.7-0.2,1.4-0.2,2
			s0.1,1.2,0.1,1.7c0.1,0.5,0.3,0.9,0.6,1.2c0.2,0.3,0.6,0.5,1,0.6s0.8,0,1.2-0.3c0.3-0.2,0.7-0.6,0.9-1c0.2-0.5,0.5-0.9,0.7-1.6
			c0.1-0.6,0.3-1.3,0.4-1.9c0.3-1.4,0.2-2.6,0-3.7C163,109.7,162.5,109.1,161.7,109z"/>
		<path class="st1" d="M196.2,132.6l-9.4-1.4l0.5-3.1h-0.2c-0.6,1-1.4,1.8-2.5,2.5c-1.2,0.6-2.6,0.8-4.1,0.6
			c-1.6-0.2-2.7-0.7-3.5-1.4c-0.8-0.8-1.4-1.7-1.8-2.8c-0.4-1.1-0.5-2.3-0.5-3.8c0.1-1.4,0.2-2.8,0.4-4.3l2.3-15.2l9.7,1.5
			l-2.3,15.2c-0.1,0.8-0.1,1.6,0.1,2.1c0.1,0.5,0.5,0.8,1.1,0.9s1.1-0.1,1.4-0.6s0.6-1,0.8-1.9l2.3-15.2l9.7,1.5L196.2,132.6z"/>
		<path class="st1" d="M204.8,107.8l9.3,1.4l-0.6,3.7h0.2c0.6-1.3,1.4-2.4,2.4-3c0.9-0.6,2-0.9,3.2-0.7c0.4,0.1,0.6,0.1,0.8,0.2
			s0.5,0.1,0.7,0.3l-2.1,9.5c-0.3-0.2-0.6-0.2-0.8-0.4c-0.3-0.1-0.7-0.2-1.2-0.3c-1.1-0.2-2,0.2-2.7,0.9c-0.8,0.7-1.2,1.7-1.4,2.9
			l-1.9,12.5l-9.7-1.5L204.8,107.8z"/>
		<path class="st1" d="M237.4,130.4c-0.2,1.7-0.8,3.1-1.7,4.1c-0.8,1.1-1.8,1.9-2.8,2.4s-2.2,0.9-3.4,1.1c-1.2,0.1-2.2,0.1-3.1,0
			c-1.8-0.3-3.5-0.9-5.2-1.8s-3.1-2-4.3-3.4l5.5-5.5c0.6,0.9,1.3,1.5,2.1,2.1s1.5,0.9,2.3,1c0.5,0.1,0.8,0,1.2-0.1s0.5-0.4,0.6-0.8
			s-0.2-0.8-0.6-1c-0.5-0.3-1.3-0.8-2.6-1.3c-0.7-0.3-1.3-0.7-2-1.1c-0.7-0.5-1.3-1.1-1.7-1.7c-0.5-0.7-0.8-1.5-1.1-2.4
			s-0.2-2-0.1-3.3c0.2-1.6,0.8-3,1.6-4c0.7-1.1,1.7-1.9,2.7-2.5s2.1-1,3.3-1.2s2.2-0.2,3.3,0c1.7,0.2,3.3,0.8,4.9,1.6
			c1.6,0.8,2.9,1.9,3.9,3.1l-5.4,5.4c-0.6-0.7-1.2-1.2-1.8-1.6c-0.7-0.4-1.3-0.7-2.1-0.8c-0.4-0.1-0.7,0-1.1,0.2
			c-0.4,0.1-0.5,0.4-0.6,0.8c-0.1,0.3,0.1,0.6,0.4,0.8c0.3,0.2,1,0.6,2.3,1.1c0.7,0.3,1.5,0.8,2.2,1.3s1.4,1.1,1.9,1.8
			c0.5,0.7,0.9,1.6,1.2,2.4C237.5,128.1,237.6,129.2,237.4,130.4z"/>
	</g>
	<circle class="st2" cx="145.3" cy="145.3" r="143.3"/>
</g>
<g>
	<path class="st3" d="M180,200.1c2.1-22.7-13.6-43.6-36.5-47.5c-22.9-3.9-44.6,10.7-50.1,32.9"/>
	<g>
		<path class="st3" d="M170,233.1c8.4-15,15.1-31.8,15.1-31.8L88.2,185c0,0,1.5,32.5,7.7,51.2l65.2,11c1.1-1.4,2.2-3,3.3-4.7"/>
	</g>
	<line class="st3" x1="86.1" y1="234.5" x2="170.3" y2="248.7"/>
	<g>
		<g>
			<path class="st3" d="M123.6,177.7l-14.3-2.4c-1.3-0.2-2.1-1.4-1.9-2.7l0.4-2.2c0.2-1.3,1.4-2.1,2.7-1.9l14.3,2.4
				c1.3,0.2,2.1,1.4,1.9,2.7l-0.4,2.2C126,177.1,124.8,177.9,123.6,177.7z"/>
			<path class="st3" d="M126,181.3l-1.9-3.5l-15.5-2.6l-2.9,2.7c-0.6,0.5-1,1.2-1.1,2l-1.3,7.6l21.8,3.7l1.3-7.6
				C126.5,182.8,126.4,182,126,181.3z"/>
		</g>
		<g>
			<path class="st3" d="M138.5,180.3l-14.3-2.4c-1.3-0.2-2.1-1.4-1.9-2.7l0.4-2.2c0.2-1.3,1.4-2.1,2.7-1.9l14.3,2.4
				c1.3,0.2,2.1,1.4,1.9,2.7l-0.4,2.2C141,179.6,139.8,180.5,138.5,180.3z"/>
			<path class="st3" d="M141,183.8l-1.9-3.5l-15.5-2.6l-2.9,2.7c-0.6,0.5-1,1.2-1.1,2l-1.3,7.6l21.8,3.7l1.3-7.6
				C141.5,185.3,141.4,184.5,141,183.8z"/>
		</g>
	</g>
	<g>
		<path class="st3" d="M166.6,170.6l4.1-24.1l-9.8-1.7l-4.1,24.1l-6,4.6c-2.1,1.6-3.4,3.8-3.9,6.4l-2.5,14.5l25.4,4.3l2.5-14.5
			c0.4-2.5-0.1-5.1-1.6-7.3L166.6,170.6z"/>
		<line class="st3" x1="157.8" y1="163.1" x2="167.6" y2="164.8"/>
	</g>
	<line class="st3" x1="108.8" y1="201.7" x2="140.1" y2="207"/>
	<line class="st3" x1="148.9" y1="208.5" x2="179.7" y2="213.7"/>
	<line class="st3" x1="91" y1="210.2" x2="117.1" y2="214.6"/>
	<line class="st3" x1="128.8" y1="216.6" x2="153.1" y2="220.7"/>
	<line class="st3" x1="116" y1="228.1" x2="140.3" y2="232.2"/>
	<line class="st3" x1="150.6" y1="191.6" x2="151.9" y2="183.9"/>
</g>
</svg>
