<?xml version="1.0" encoding="utf-8"?>
<!-- Generator: Adobe Illustrator 24.3.0, SVG Export Plug-In . SVG Version: 6.00 Build 0)  -->
<svg version="1.1" id="Calque_1" xmlns="http://www.w3.org/2000/svg" xmlns:xlink="http://www.w3.org/1999/xlink" x="0px" y="0px"
	 viewBox="0 0 44.9 37.2" style="enable-background:new 0 0 44.9 37.2;" xml:space="preserve">
<style type="text/css">
	.st0{fill:#1D1D1B;}
</style>
<path class="st0" d="M15.1,13.6c0,0.6,0.5,1.1,1.1,1.1s1.1-0.5,1.1-1.1s-0.5-1.1-1.1-1.1S15.1,13,15.1,13.6L15.1,13.6z M28.1,13.6
	c0-0.6-0.5-1.1-1.1-1.1s-1.1,0.5-1.1,1.1s0.5,1.1,1.1,1.1l0,0C27.7,14.7,28.1,14.2,28.1,13.6L28.1,13.6z M44.9,24.7
	c0-3.2-1.9-6.2-4.8-7.5c-0.5-0.2-1.2,0-1.4,0.5s0,1.2,0.5,1.4l0,0c3.1,1.4,4.4,5,3,8.1c-0.6,1.4-1.7,2.5-3.1,3.1
	c-0.5,0.2-0.7,0.7-0.6,1.2l0.4,2.1L35.7,31c-0.2-0.2-0.4-0.2-0.7-0.2h-5.3c-3.4,0-6.1-2.7-6.1-6.1s2.7-6.1,6.1-6.1h6.4l0,0h0.1h0.1
	h0.1h0.1c0,0,0.1,0,0.1-0.1s0.1,0,0.1,0s0.1,0,0.1-0.1c0,0,0,0,0.1-0.1s0-0.1,0.1-0.1s0-0.1,0.1-0.1s0-0.1,0-0.1s0-0.1,0.1-0.1l0,0
	c2.6-6.8-0.9-14.4-7.7-17c-1.5-0.6-3-0.8-4.6-0.8H13.2C5.9,0,0,5.9,0,13.2c0,4.9,2.7,9.4,7.1,11.7l-1.3,7.5
	c-0.1,0.6,0.3,1.1,0.9,1.2c0.3,0.1,0.6,0,0.9-0.2l8.8-7h2.5c0.6,0,1.1-0.5,1.1-1.1s-0.5-1.1-1.1-1.1H16c-0.2,0-0.5,0.1-0.7,0.2
	l-6.9,5.5l1-5.5c0.1-0.5-0.2-1-0.6-1.2c-5.6-2.5-8.1-9-5.6-14.6C5,4.6,8.9,2,13.3,2h11.6C31,2,36,6.9,36,13.1c0,1.1-0.2,2.2-0.5,3.2
	h-5.6c-4.6,0-8.3,3.7-8.3,8.3s3.7,8.3,8.3,8.3h4.9l5.1,4.1c0.5,0.4,1.1,0.3,1.5-0.2c0.2-0.2,0.3-0.6,0.2-0.9l-0.7-4.1
	C43.4,30.4,44.9,27.6,44.9,24.7L44.9,24.7z M22.7,13.6c0-0.6-0.5-1.1-1.1-1.1s-1.1,0.5-1.1,1.1s0.5,1.1,1.1,1.1l0,0
	C22.2,14.7,22.7,14.2,22.7,13.6z M9.7,13.6c0,0.6,0.5,1.1,1.1,1.1s1.1-0.5,1.1-1.1s-0.5-1.1-1.1-1.1S9.7,13,9.7,13.6L9.7,13.6z
	 M27.6,24.8c0,0.6,0.5,1.1,1.1,1.1s1.1-0.5,1.1-1.1s-0.5-1.1-1.1-1.1S27.6,24.2,27.6,24.8L27.6,24.8z M32,24.8
	c0,0.6,0.5,1.1,1.1,1.1s1.1-0.5,1.1-1.1s-0.5-1.1-1.1-1.1C32.5,23.7,32.1,24.2,32,24.8L32,24.8z M36.5,24.8c0,0.6,0.5,1.1,1.1,1.1
	s1.1-0.5,1.1-1.1s-0.5-1.1-1.1-1.1C37,23.7,36.5,24.2,36.5,24.8L36.5,24.8z"/>
</svg>
