<svg xmlns="http://www.w3.org/2000/svg" width="49.853" height="49.853" viewBox="0 0 49.853 49.853"><defs><style>.a{fill:#fff;}</style></defs><path class="a" d="M68.295,37.946A24.926,24.926,0,1,1,43.368,13.019,24.927,24.927,0,0,1,68.295,37.946Zm-17.737-4.9c-1.327,2.069-4.545,6.817-5.766,8.235s-2.244,2.559-3.029,1.523c-1.063-1.4-3.74-5.584-4.367-6.7s-1.043.17-.828,1.18,3.823,11.127,5.7,10.528c3.133-1,7.987-9.764,9.476-12.918S51.906,30.945,50.558,33.045Zm11.861,4.743-5.035-.544a63.657,63.657,0,0,1,5.061-4.715c.881-.79.423-1.473-.349-1.263s-8.6,3.8-8.281,7.192c-.319,3.392,7.51,6.814,8.281,7.022s.92-.673.038-1.454a51.2,51.2,0,0,1-4.921-4.551l5.206-.762c.158,0,.482-.207.482-.462S62.577,37.788,62.419,37.788ZM35.087,32.3a50.654,50.654,0,0,0-9.037-1.979c-3.059-.45-2.713,2.859-.582,3.009.774.006,1.931.045,3.21.1a42.965,42.965,0,0,0,2.633,8.134c2.338,4.856,4.376,4.764,3.365,2.033a50.567,50.567,0,0,1-2.809-10.012c1.86.1,2.2.067,3,.11C36.526,33.788,36.571,32.9,35.087,32.3Z" transform="translate(-18.442 -13.019)"/></svg>