<svg xmlns="http://www.w3.org/2000/svg" xmlns:xlink="http://www.w3.org/1999/xlink" width="191.475" height="191.475" viewBox="0 0 191.475 191.475"><defs><style>.a{fill:none;}.b{fill:#fff;}.c{fill:#005cb9;}.d{clip-path:url(#a);}.e{clip-path:url(#b);}</style><clipPath id="a"><circle class="a" cx="93.429" cy="93.429" r="93.429"/></clipPath><clipPath id="b"><rect class="a" width="205.68" height="58.216" transform="matrix(1, -0.026, 0.026, 1, 0, 5.312)"/></clipPath></defs><g transform="translate(-278.336 -213.269)"><g transform="translate(278.336 213.269)"><circle class="b" cx="93.429" cy="93.429" r="93.429" transform="translate(2.309 2.308)"/><path class="c" d="M374.075,404.744a95.738,95.738,0,1,1,95.737-95.738A95.847,95.847,0,0,1,374.075,404.744Zm0-186.859a91.121,91.121,0,1,0,91.12,91.121A91.225,91.225,0,0,0,374.075,217.885Z" transform="translate(-278.336 -213.269)"/></g><g transform="translate(280.645 215.577)"><g class="d" transform="translate(0)"><g transform="translate(-39 39.251)"><g transform="translate(0 0)"><g class="e" transform="translate(0)"><g transform="translate(92.903 1.842)"><g transform="translate(0 15.804)"><path class="c" d="M360.078,312.71q-1.057.143-2.287.219a12.2,12.2,0,0,1-2.382-.084,6.93,6.93,0,0,1-2.082-.606,3.337,3.337,0,0,1-1.451-1.323,3.987,3.987,0,0,1-.468-2.234,10.119,10.119,0,0,1,.889-3.364l2.069-4.989a14.827,14.827,0,0,1,3.073-4.847,16.358,16.358,0,0,1,3.809-2.928,15.626,15.626,0,0,1,3.892-1.513q1.927-.447,3.376-.644.939-.128,1.934-.171a7.885,7.885,0,0,1,1.878.134,4.212,4.212,0,0,1,1.564.639,2.548,2.548,0,0,1,.976,1.332,5.049,5.049,0,0,1,.134,2.205,12.851,12.851,0,0,1-.993,3.3,9.752,9.752,0,0,1-2.616,3.154,16,16,0,0,1-3.842,2.3,18.059,18.059,0,0,1-4.355,1.241,12.956,12.956,0,0,1-4.165.01,2.549,2.549,0,0,0-.1,1.646,1.659,1.659,0,0,0,.727.883,2.44,2.44,0,0,0,1.134.309,6.337,6.337,0,0,0,1.067-.035q2.271-.309,3.807-.629t2.925-.584l-.1,4.053a16.307,16.307,0,0,1-2.221,1.025,21.851,21.851,0,0,1-2.278.718q-1.11.28-2.123.475t-1.8.3m5.892-17.369a6.6,6.6,0,0,0-1.33.328,4.782,4.782,0,0,0-1.322.755,7.2,7.2,0,0,0-1.312,1.4,13.359,13.359,0,0,0-1.3,2.271q.852-.077,1.921-.113a12.024,12.024,0,0,0,2.086-.247,6.271,6.271,0,0,0,1.83-.676,2.756,2.756,0,0,0,1.2-1.405q.477-1.621-.021-2.054a2.234,2.234,0,0,0-1.752-.262" transform="translate(-351.394 -290.217)"/></g><g transform="translate(19.632 12.753)"><path class="c" d="M393.391,298.352q.914-2.162,1.336-3.48a6.46,6.46,0,0,0,.4-1.981.843.843,0,0,0-.472-.844,2.7,2.7,0,0,0-1.31-.063,4.316,4.316,0,0,0-.91.236q-.479.177-.909.382l-.908.457L384,308.931l-7.086.965,6.08-14.615q.114-.31.264-.684a1.512,1.512,0,0,0,.127-.666.664.664,0,0,0-.224-.469.97.97,0,0,0-.75-.1,2.147,2.147,0,0,0-.563.132,1.017,1.017,0,0,1-.249.089l1.486-4.169a10.975,10.975,0,0,1,1.387-.706,6.382,6.382,0,0,1,1.662-.449,10.958,10.958,0,0,1,2.375-.12,2.289,2.289,0,0,1,1.352.5A17.351,17.351,0,0,1,393.3,287.1a22.046,22.046,0,0,1,3.4-.721,8.108,8.108,0,0,1,3.072.045,3.623,3.623,0,0,1,1.767.964,3.139,3.139,0,0,1,.791,1.542,5.97,5.97,0,0,1,.087,1.786,9.262,9.262,0,0,1-.325,1.694q-.234.792-.429,1.263l-1.029,2.474q-.357.827-.746,1.79t-.736,1.823q-.346.862-.538,1.481a2.007,2.007,0,0,0-.151.763.307.307,0,0,0,.222.247.9.9,0,0,0,.427.035,3.256,3.256,0,0,0,.85-.227l.469-.212-1.579,4.4a10.456,10.456,0,0,1-1.406.71,6.211,6.211,0,0,1-1.564.435,21.943,21.943,0,0,1-2.953.235,2.5,2.5,0,0,1-1.743-.522,1.9,1.9,0,0,1-.415-1.683,13.1,13.1,0,0,1,.985-3.21Z" transform="translate(-376.909 -286.251)"/></g><g transform="translate(44.704 0.397)"><path class="c" d="M428.339,276.61l2.164-5.224,8.771-1.193-9.717,23.341a3.375,3.375,0,0,0-.389,1.424q.014.554.954.425c.153-.021.32-.05.494-.086a1.108,1.108,0,0,0,.4-.146l-1.526,4.17-1.073.516a6.3,6.3,0,0,1-2.014.645,11.654,11.654,0,0,1-2.208.134,2.741,2.741,0,0,1-1.477-.521l-.829.446a11.376,11.376,0,0,1-1.465.644q-.811.3-1.686.545t-1.771.426q-.894.177-1.678.284a11.684,11.684,0,0,1-2.718.055,3.382,3.382,0,0,1-2.181-.982,3.779,3.779,0,0,1-.888-2.6,12.236,12.236,0,0,1,1.221-4.784l1.674-4.009a19.34,19.34,0,0,1,2.717-4.706,15.811,15.811,0,0,1,3.172-3.025,13.166,13.166,0,0,1,3.279-1.7,16.136,16.136,0,0,1,3-.743q.705-.1,1.415-.137t1.254-.022c.362.013.659.034.892.064a.853.853,0,0,1,.408.112l1.492-3.579Zm-2.1,8.773-.656-.1a7.234,7.234,0,0,0-3.128.407,3.8,3.8,0,0,0-1.3.88,8.542,8.542,0,0,0-1.285,1.75,24.759,24.759,0,0,0-1.417,2.973q-.77,1.882-1.129,3.025a5.236,5.236,0,0,0-.319,1.748.731.731,0,0,0,.516.746,3.362,3.362,0,0,0,1.338.024,6.206,6.206,0,0,0,1.686-.47,12.115,12.115,0,0,0,1.411-.729Z" transform="translate(-409.494 -270.193)"/></g><g transform="translate(68.168)"><path class="c" d="M448.673,298.7q-1.058.143-2.287.219a12.155,12.155,0,0,1-2.382-.085,6.884,6.884,0,0,1-2.082-.606,3.335,3.335,0,0,1-1.45-1.323,3.993,3.993,0,0,1-.468-2.234,10.139,10.139,0,0,1,.89-3.364l2.068-4.989a14.826,14.826,0,0,1,3.073-4.847,16.335,16.335,0,0,1,3.809-2.927,15.624,15.624,0,0,1,3.893-1.513q1.926-.447,3.375-.644.941-.128,1.935-.171a7.84,7.84,0,0,1,1.877.134,4.205,4.205,0,0,1,1.563.64,2.546,2.546,0,0,1,.976,1.33,5.054,5.054,0,0,1,.134,2.206,12.849,12.849,0,0,1-.992,3.3,9.763,9.763,0,0,1-2.617,3.154,16.024,16.024,0,0,1-3.842,2.3,18.059,18.059,0,0,1-4.355,1.241,12.952,12.952,0,0,1-4.165.01,2.553,2.553,0,0,0-.105,1.645,1.663,1.663,0,0,0,.727.883,2.433,2.433,0,0,0,1.134.309,6.355,6.355,0,0,0,1.068-.035q2.27-.309,3.806-.629t2.926-.584l-.1,4.053a16.268,16.268,0,0,1-2.222,1.025,21.841,21.841,0,0,1-2.277.718q-1.11.281-2.123.474t-1.8.3m5.891-17.369a6.534,6.534,0,0,0-1.329.328,4.775,4.775,0,0,0-1.323.755,7.226,7.226,0,0,0-1.312,1.4,13.249,13.249,0,0,0-1.3,2.271q.851-.077,1.921-.113a12.1,12.1,0,0,0,2.084-.246,6.265,6.265,0,0,0,1.83-.676,2.753,2.753,0,0,0,1.2-1.4q.478-1.622-.021-2.054a2.23,2.23,0,0,0-1.752-.262m10.415-11.647-5.426,5.408-5.522.752,4.369-5.264Z" transform="translate(-439.99 -269.677)"/></g><g transform="translate(89.272 3.655)"><path class="c" d="M476.1,296.92q-1.056.143-2.286.219a12.151,12.151,0,0,1-2.382-.083,6.906,6.906,0,0,1-2.082-.606,3.325,3.325,0,0,1-1.45-1.322,4,4,0,0,1-.468-2.235,10.12,10.12,0,0,1,.889-3.364l2.067-4.989a14.841,14.841,0,0,1,3.074-4.847,16.37,16.37,0,0,1,3.809-2.928,15.668,15.668,0,0,1,3.894-1.512q1.927-.448,3.375-.645.939-.128,1.934-.171a7.887,7.887,0,0,1,1.878.133,4.216,4.216,0,0,1,1.563.64,2.547,2.547,0,0,1,.976,1.332,5.052,5.052,0,0,1,.134,2.205,12.855,12.855,0,0,1-.993,3.3,9.744,9.744,0,0,1-2.616,3.154,15.983,15.983,0,0,1-3.843,2.3,17.994,17.994,0,0,1-4.355,1.241,12.976,12.976,0,0,1-4.165.011,2.545,2.545,0,0,0-.1,1.644,1.657,1.657,0,0,0,.727.883,2.429,2.429,0,0,0,1.134.309,6.328,6.328,0,0,0,1.067-.035q2.271-.308,3.807-.629t2.926-.583l-.1,4.053a16.3,16.3,0,0,1-2.221,1.025,21.85,21.85,0,0,1-2.278.717q-1.11.28-2.122.475t-1.8.3m5.892-17.369a6.54,6.54,0,0,0-1.33.329,4.794,4.794,0,0,0-1.322.754,7.224,7.224,0,0,0-1.312,1.4,13.314,13.314,0,0,0-1.3,2.271q.851-.078,1.921-.114a12.024,12.024,0,0,0,2.085-.247,6.269,6.269,0,0,0,1.83-.675,2.753,2.753,0,0,0,1.2-1.4q.478-1.623-.021-2.055a2.232,2.232,0,0,0-1.751-.262" transform="translate(-467.419 -274.428)"/></g></g></g></g><g transform="translate(7.408 2.423)"><path class="c" d="M329.713,272.471l-26.359,37.975,5.25-35.1-15.679,2.134-4.368,10.366,6.926-.831-4.814,43.049,10.226-1.537,33.147-46.905,6.29-.823,4.363-10.366ZM244.645,284.32l-4.368,10.366,44.831-6.288,4.368-10.366Z" transform="translate(-240.277 -270.432)"/></g><g transform="translate(0 0)"><g class="e" transform="translate(0)"><g transform="translate(77.211 31.166)"><g transform="translate(0 11.884)"><path class="c" d="M335.665,338.826q-.568.077-1.228.118a6.542,6.542,0,0,1-1.28-.044,3.716,3.716,0,0,1-1.119-.326,1.789,1.789,0,0,1-.779-.71,2.153,2.153,0,0,1-.252-1.2,5.47,5.47,0,0,1,.479-1.808l1.111-2.681a7.987,7.987,0,0,1,1.652-2.607,8.755,8.755,0,0,1,2.047-1.573,8.416,8.416,0,0,1,2.092-.812q1.035-.241,1.815-.347.505-.068,1.039-.092a4.269,4.269,0,0,1,1.009.072,2.271,2.271,0,0,1,.84.344,1.371,1.371,0,0,1,.524.716,2.705,2.705,0,0,1,.072,1.185,6.955,6.955,0,0,1-.531,1.775,5.231,5.231,0,0,1-1.407,1.694,8.589,8.589,0,0,1-2.065,1.237,9.686,9.686,0,0,1-2.341.667,6.934,6.934,0,0,1-2.237.006,1.375,1.375,0,0,0-.055.885.9.9,0,0,0,.391.475,1.314,1.314,0,0,0,.609.165,3.4,3.4,0,0,0,.574-.015q1.22-.166,2.045-.339t1.573-.314l-.052,2.178a8.637,8.637,0,0,1-1.193.551,11.749,11.749,0,0,1-1.222.385q-.6.151-1.14.255t-.966.162m3.166-9.334a3.509,3.509,0,0,0-.714.177,2.56,2.56,0,0,0-.711.4,3.877,3.877,0,0,0-.7.753,7.183,7.183,0,0,0-.7,1.22q.46-.043,1.031-.061a6.555,6.555,0,0,0,1.116-.135,3.4,3.4,0,0,0,.984-.362,1.483,1.483,0,0,0,.645-.755q.257-.872-.011-1.1a1.2,1.2,0,0,0-.941-.142m5.594-6.255-2.916,2.906-2.967.4,2.348-2.831Z" transform="translate(-330.999 -323.234)"/></g><g transform="translate(10.552 13.746)"><path class="c" d="M353.568,332.159q.49-1.161.717-1.87a3.478,3.478,0,0,0,.214-1.065.453.453,0,0,0-.254-.456,1.44,1.44,0,0,0-.7-.034,2.329,2.329,0,0,0-.489.126c-.171.064-.335.132-.488.206l-.488.243-3.559,8.535-3.807.518,3.268-7.853c.041-.112.089-.235.145-.369a.814.814,0,0,0,.068-.357.355.355,0,0,0-.121-.252.522.522,0,0,0-.4-.055,1.163,1.163,0,0,0-.3.071.532.532,0,0,1-.135.048l.8-2.24a5.808,5.808,0,0,1,.746-.38,3.428,3.428,0,0,1,.893-.242,5.915,5.915,0,0,1,1.277-.064,1.226,1.226,0,0,1,.726.27,9.306,9.306,0,0,1,1.849-.832,11.8,11.8,0,0,1,1.824-.388,4.363,4.363,0,0,1,1.65.025,1.945,1.945,0,0,1,.95.514,1.686,1.686,0,0,1,.425.829,3.212,3.212,0,0,1,.047.959,4.945,4.945,0,0,1-.174.909c-.085.284-.161.51-.23.679l-.552,1.33q-.192.444-.4.961l-.4.98q-.186.466-.287.8a1.084,1.084,0,0,0-.081.41.165.165,0,0,0,.119.133.491.491,0,0,0,.232.018,1.787,1.787,0,0,0,.459-.122l.252-.115-.851,2.367a5.653,5.653,0,0,1-.755.381,3.327,3.327,0,0,1-.841.235,11.772,11.772,0,0,1-1.587.126,1.343,1.343,0,0,1-.936-.284,1.017,1.017,0,0,1-.222-.906,6.988,6.988,0,0,1,.529-1.725Z" transform="translate(-344.713 -325.655)"/></g><g transform="translate(24.029 12.116)"><path class="c" d="M366.895,335.625q-.569.077-1.229.118a6.593,6.593,0,0,1-1.28-.044,3.7,3.7,0,0,1-1.119-.33,1.8,1.8,0,0,1-.78-.71,2.153,2.153,0,0,1-.251-1.2,5.46,5.46,0,0,1,.478-1.807l1.112-2.68a7.98,7.98,0,0,1,1.652-2.605,8.788,8.788,0,0,1,2.046-1.574,8.352,8.352,0,0,1,2.093-.812q1.035-.241,1.814-.347.505-.068,1.04-.092a4.27,4.27,0,0,1,1.009.072,2.267,2.267,0,0,1,.84.343,1.367,1.367,0,0,1,.524.716,2.694,2.694,0,0,1,.073,1.185,6.955,6.955,0,0,1-.531,1.775,5.244,5.244,0,0,1-1.408,1.7,8.593,8.593,0,0,1-2.064,1.236,9.685,9.685,0,0,1-2.341.667,6.938,6.938,0,0,1-2.238.006,1.373,1.373,0,0,0-.054.884.894.894,0,0,0,.391.475,1.308,1.308,0,0,0,.609.165,3.327,3.327,0,0,0,.574-.015q1.22-.166,2.045-.338t1.572-.314l-.052,2.178a8.692,8.692,0,0,1-1.194.551,11.438,11.438,0,0,1-1.221.385q-.6.151-1.14.255t-.965.162m3.166-9.333a3.516,3.516,0,0,0-.715.177,2.546,2.546,0,0,0-.71.4,3.877,3.877,0,0,0-.706.753,7.249,7.249,0,0,0-.7,1.22c.308-.028.651-.048,1.032-.061a6.464,6.464,0,0,0,1.121-.132,3.382,3.382,0,0,0,.984-.363,1.48,1.48,0,0,0,.644-.755q.257-.871-.011-1.1a1.2,1.2,0,0,0-.941-.141" transform="translate(-362.229 -323.536)"/></g><g transform="translate(34.561 10.43)"><path class="c" d="M385.987,324.467a12.183,12.183,0,0,0-2.053.409c-.429.145-.659.226-.69.243l-3.519,8.467-3.808.519,3.319-7.98q-.252.114-.4.165c-.1.033-.205.079-.328.134l.929-2.437a8.868,8.868,0,0,1,1.947-1.127,18.273,18.273,0,0,1,2.13-.758,20.276,20.276,0,0,1,2.049-.479q.989-.174,1.725-.276Z" transform="translate(-375.918 -321.345)"/></g><g transform="translate(41.375 9.125)"><path class="c" d="M389.746,333.482a2.936,2.936,0,0,0,.943-.277,3.081,3.081,0,0,0,.685-.472,3.355,3.355,0,0,0,.48-.543,5.1,5.1,0,0,0,.3-.489,1.816,1.816,0,0,1-.31.142,4.9,4.9,0,0,1-.562.176q-.325.086-.723.168c-.264.056-.522.1-.776.135a5.881,5.881,0,0,1-1.462.019,1.886,1.886,0,0,1-1.163-.519,1.937,1.937,0,0,1-.484-1.328,5.927,5.927,0,0,1,.6-2.412l.9-2.154a10.674,10.674,0,0,1,1.533-2.687,8.984,8.984,0,0,1,1.774-1.705,6.856,6.856,0,0,1,1.8-.932,9.259,9.259,0,0,1,1.621-.39,10.027,10.027,0,0,1,1.9-.089,3.223,3.223,0,0,1,1.427.353,5.138,5.138,0,0,1,1.14-.544,7.907,7.907,0,0,1,1.254-.263,2.136,2.136,0,0,1,.727.021,2.52,2.52,0,0,1,.6.2l-1.075,2.279a.911.911,0,0,1-.172-.007,1.055,1.055,0,0,0-.231,0,1.138,1.138,0,0,0-.771.4,4.038,4.038,0,0,0-.483.8l-2.962,7.113A10.3,10.3,0,0,1,394.6,333.3a9.86,9.86,0,0,1-1.942,1.768,7.633,7.633,0,0,1-1.915.958,9.765,9.765,0,0,1-1.6.387,14.069,14.069,0,0,1-2.569.15,4.717,4.717,0,0,1-1.8-.416l1.917-2.73a7.029,7.029,0,0,0,.82.137,7.249,7.249,0,0,0,.732.04c.237,0,.476-.009.719-.028s.5-.049.783-.087m5.945-10.21a2.442,2.442,0,0,0-.517-.208,1.933,1.933,0,0,0-.806-.029,2.881,2.881,0,0,0-.807.218,1.938,1.938,0,0,0-.659.528,5.445,5.445,0,0,0-.645,1q-.33.634-.744,1.645a12.042,12.042,0,0,0-.551,1.569,1.76,1.76,0,0,0-.059.855.44.44,0,0,0,.355.33,2.264,2.264,0,0,0,.713-.007,6.039,6.039,0,0,0,.749-.152,4.1,4.1,0,0,0,.669-.241Z" transform="translate(-384.774 -319.649)"/></g><g transform="translate(55.347 3.745)"><path class="c" d="M411.6,317.117l-4.855,11.634-3.808.518,3.671-8.824-.926.126,1.185-2.81Zm-3.4-2.207a3.277,3.277,0,0,1,1.281-1.558,4.5,4.5,0,0,1,1.788-.652,4.215,4.215,0,0,1,.853-.036,1,1,0,0,1,.6.208.734.734,0,0,1,.236.526,2.015,2.015,0,0,1-.212.895,3.231,3.231,0,0,1-1.291,1.6,4.643,4.643,0,0,1-1.784.632,4.2,4.2,0,0,1-.863.038,1.047,1.047,0,0,1-.591-.2.7.7,0,0,1-.236-.526,2.139,2.139,0,0,1,.219-.929" transform="translate(-402.933 -312.656)"/></g><g transform="translate(62.008 6.947)"><path class="c" d="M416.256,328.908q-.568.077-1.229.118a6.582,6.582,0,0,1-1.28-.044,3.719,3.719,0,0,1-1.119-.33,1.8,1.8,0,0,1-.78-.71,2.152,2.152,0,0,1-.251-1.2,5.441,5.441,0,0,1,.478-1.807l1.112-2.681a7.98,7.98,0,0,1,1.652-2.605,8.762,8.762,0,0,1,2.046-1.573,8.414,8.414,0,0,1,2.093-.812q1.035-.241,1.814-.347.506-.068,1.039-.092a4.221,4.221,0,0,1,1.009.072,2.262,2.262,0,0,1,.839.344,1.367,1.367,0,0,1,.524.716,2.708,2.708,0,0,1,.072,1.185,6.921,6.921,0,0,1-.53,1.775,5.244,5.244,0,0,1-1.406,1.7,8.586,8.586,0,0,1-2.065,1.237,9.683,9.683,0,0,1-2.341.667,6.935,6.935,0,0,1-2.238.005,1.372,1.372,0,0,0-.054.884.9.9,0,0,0,.391.475,1.309,1.309,0,0,0,.609.165,3.4,3.4,0,0,0,.574-.015q1.22-.166,2.045-.338t1.572-.314l-.052,2.178a8.688,8.688,0,0,1-1.193.551,11.472,11.472,0,0,1-1.221.385q-.6.152-1.14.255t-.966.162m3.166-9.333a3.5,3.5,0,0,0-.714.177,2.565,2.565,0,0,0-.711.4,3.873,3.873,0,0,0-.7.753,7.235,7.235,0,0,0-.7,1.22c.308-.028.651-.048,1.032-.061a6.455,6.455,0,0,0,1.12-.132,3.362,3.362,0,0,0,.984-.364,1.477,1.477,0,0,0,.645-.754q.257-.871-.011-1.1a1.2,1.2,0,0,0-.941-.141" transform="translate(-411.59 -316.818)"/></g><g transform="translate(80.147 1.422)"><path class="c" d="M444.436,309.637l-1.463,3.525,2.168-.295-1.184,2.81-2.231.3-2.106,5.057a4.214,4.214,0,0,0-.159.4,1.477,1.477,0,0,0-.083.377.342.342,0,0,0,.078.268c.058.065.172.085.34.062a4.014,4.014,0,0,0,.5-.106c.181-.05.361-.105.539-.168l.581-.209-.771,2.534c-.09.039-.245.1-.462.182s-.465.17-.746.262-.58.178-.9.261a7.83,7.83,0,0,1-.941.188,3.751,3.751,0,0,1-1.277-.015,1.5,1.5,0,0,1-.836-.44,1.364,1.364,0,0,1-.324-.869,3.108,3.108,0,0,1,.282-1.3l2.494-5.963-1.431.191,1.184-2.809,1.052-.144a.959.959,0,0,0,.428-.208,2.859,2.859,0,0,0,.532-.59,10.187,10.187,0,0,0,.65-1.065q.355-.654.753-1.607Z" transform="translate(-435.165 -309.637)"/></g><g transform="translate(87.648 3.458)"><path class="c" d="M446.606,317.946a9.124,9.124,0,0,1,1.593-2.658,8.53,8.53,0,0,1,1.93-1.636,8.042,8.042,0,0,1,1.987-.877,13.739,13.739,0,0,1,1.8-.385q.526-.07,1.1-.1a4.617,4.617,0,0,1,1.09.072,2.68,2.68,0,0,1,.919.353,1.463,1.463,0,0,1,.59.736,2.736,2.736,0,0,1,.109,1.228,6.61,6.61,0,0,1-.519,1.824l-1.134,2.7a9.069,9.069,0,0,1-1.5,2.521,7.1,7.1,0,0,1-3.721,2.3,18.567,18.567,0,0,1-1.944.374,16.7,16.7,0,0,1-1.826.149,2.818,2.818,0,0,1-1.48-.306,1.456,1.456,0,0,1-.689-1.162,5.173,5.173,0,0,1,.548-2.414Zm2.974,1.455a6.518,6.518,0,0,0-.428,1.329,1.322,1.322,0,0,0,.018.692.391.391,0,0,0,.333.252,2.119,2.119,0,0,0,.532-.014,3.539,3.539,0,0,0,.625-.145,1.833,1.833,0,0,0,.622-.372,3.7,3.7,0,0,0,.641-.782,9.891,9.891,0,0,0,.707-1.376l.6-1.452a5.466,5.466,0,0,0,.41-1.323,1.231,1.231,0,0,0-.067-.716.515.515,0,0,0-.368-.278,1.4,1.4,0,0,0-.453-.017,2.189,2.189,0,0,0-.525.15,2.307,2.307,0,0,0-.629.412,4.376,4.376,0,0,0-.706.828,7.743,7.743,0,0,0-.718,1.378Z" transform="translate(-444.914 -312.284)"/></g><g transform="translate(100.024 1.467)"><path class="c" d="M474.658,309.695l-3.261,7.834a2.484,2.484,0,0,0-.144.389,2.049,2.049,0,0,0-.081.409.452.452,0,0,0,.065.306.305.305,0,0,0,.31.087,2.19,2.19,0,0,0,.478-.125l.228-.111-.871,2.37a5.12,5.12,0,0,1-.807.389,3.977,3.977,0,0,1-.892.241,7.067,7.067,0,0,1-1.413.082,1.54,1.54,0,0,1-.768-.224l-.094.052a11.666,11.666,0,0,1-1.63.59,13.5,13.5,0,0,1-1.62.311,7.288,7.288,0,0,1-1.394.051,2.071,2.071,0,0,1-1.19-.406,1.637,1.637,0,0,1-.574-1.126,4.373,4.373,0,0,1,.478-2.137l2.013-4.831-.925.127,1.183-2.81,4.755-.647-3.376,8.047q-.165.421.062.609a.811.811,0,0,0,.649.131,2.956,2.956,0,0,0,.877-.219,1.647,1.647,0,0,1,.52-.167l3.616-8.7Z" transform="translate(-460.999 -309.695)"/></g><g transform="translate(111.213)"><path class="c" d="M485.611,310.91a12.107,12.107,0,0,0-2.053.409q-.644.217-.69.243l-3.519,8.467-3.808.519,3.319-7.98q-.252.114-.4.164c-.1.033-.205.078-.328.135l.929-2.437a8.876,8.876,0,0,1,1.947-1.128,18.281,18.281,0,0,1,2.13-.758,20.358,20.358,0,0,1,2.05-.478q.989-.174,1.725-.275Z" transform="translate(-475.541 -307.789)"/></g></g></g></g></g></g></g><g transform="translate(284.94 315.69)"><path class="c" d="M469.548,346.384a93.449,93.449,0,0,1-182.629,19.534Z" transform="translate(-286.919 -346.384)"/></g><g transform="translate(310.075 326.411)"><path class="b" d="M355.228,375.118l-.309,4.623-1.6.18-7.57,20.758-6.916.778-2.242-8.892-3.449,9.532-6.916.776-4.867-19.36-1.771.2.308-4.623,6.883-.774,3.359,15.77,4-11.387-1.26-5.067,6.508-.731,3.359,15.768,5.908-16.81Z" transform="translate(-319.587 -363.731)"/><path class="b" d="M368.3,378.839l.309-4.623,17.514-1.968-.309,4.623-9.438,1.061-.338,5.281,6.405-.72-.3,4.726-6.406.72-.322,5.418,9.438-1.06-.274,4.62-15.946,1.792,1.233-20.046Z" transform="translate(-330.819 -363.069)"/><path class="b" d="M395.177,376l.309-4.623,9.37-1.053q1.566-.177,3.35-.273a10.065,10.065,0,0,1,3.244.308,4.642,4.642,0,0,1,2.375,1.493,4.539,4.539,0,0,1,.783,3.276l-.141,2.12a3.939,3.939,0,0,1-.716,2.082,7.336,7.336,0,0,1-1.628,1.632,4.846,4.846,0,0,1,2.147,1.76,4.763,4.763,0,0,1,.634,3.035l-.166,2.5a4.7,4.7,0,0,1-1.213,3.034,8.643,8.643,0,0,1-2.7,1.942,15.182,15.182,0,0,1-3.376,1.121q-1.787.374-3.286.542l-8.688.976,1.233-20.047Zm13.2,10.937a5.141,5.141,0,0,0-.059-.977,2.209,2.209,0,0,0-.426-1.022,2.322,2.322,0,0,0-1-.733,3.646,3.646,0,0,0-1.776-.145l-2.454.276-.374,6.183,2.316-.261q.546-.061,1.187-.185a3.511,3.511,0,0,0,1.19-.462,2.806,2.806,0,0,0,.926-.966A3.943,3.943,0,0,0,408.379,386.942Zm-.285-9.9q.1-1.6-.569-1.989a3.5,3.5,0,0,0-2.1-.231l-2.181.245-.3,5,1.874-.21a9.417,9.417,0,0,0,1.1-.193,3.12,3.12,0,0,0,1.02-.442,2.523,2.523,0,0,0,.769-.828A3.28,3.28,0,0,0,408.093,377.037Z" transform="translate(-337.017 -362.559)"/><path class="b" d="M442.2,371.889l-3.85.432.382-6.115,21.261-2.389-.382,6.115-3.85.432.032-.624a.992.992,0,0,0-.08-.56.589.589,0,0,0-.356-.253l-3.2.36-.958,15.426,1.5-.169-.274,4.62-9.234,1.037.275-4.62,1.533-.172.959-15.426-3.237.364a.956.956,0,0,0-.484.916Z" transform="translate(-346.97 -361.125)"/><path class="b" d="M467.667,367.5l.308-4.623,6.883-.773,3.359,15.769,5.908-16.81,6.575-.739-.309,4.624-1.6.18-7.57,20.758-6.916.777-4.867-19.36Z" transform="translate(-353.731 -360.318)"/></g><g transform="translate(374.074 368.409)"><path class="b" d="M428.815,423.359a.723.723,0,0,1,.152,1.356l-11.1,6.832-11.107,6.836c-.6.372-1.442.085-1.51-.516l-1.24-11.034L402.77,415.8c-.068-.6.685-1.068,1.357-.839l12.348,4.2Z" transform="translate(-402.765 -414.901)"/></g></g></svg>