<?xml version="1.0" encoding="utf-8"?>
<!-- Generator: Adobe Illustrator 24.3.0, SVG Export Plug-In . SVG Version: 6.00 Build 0)  -->
<svg version="1.1" id="logo-31" xmlns="http://www.w3.org/2000/svg" xmlns:xlink="http://www.w3.org/1999/xlink" x="0px" y="0px"
	 viewBox="0 0 100 45" style="enable-background:new 0 0 100 45;" xml:space="preserve">
<style type="text/css">
	.st0{fill:#00A0DD;}
	.st1{fill:#B5D63E;}
</style>
<path class="st0" d="M43.5,36.4c-3.3,5.9-9.9,8.6-16.6,8.6H0c28-3.5,47.5-17.5,50-37c2.5,19.5,22,33.5,50,37H73.1
	c-6.7,0-13.3-2.8-16.6-8.6C53,30,50.7,22.8,50,15C49.3,22.8,47,30,43.5,36.4z"/>
<path class="st1" d="M28.1,34.3c-1.6,0.9-3.2,1.7-5,2.5c-1-3.4-1.3-7-1.1-10.5c0.4-4.7,1.9-9.2,4.4-13.2c2.5-4,5.9-7.2,9.9-9.5
	c4-2.3,8.5-3.5,13.1-3.6c4.6-0.1,9.2,1,13.2,3.2c4.1,2.2,7.6,5.3,10.2,9.2c2.6,3.9,4.3,8.4,4.8,13c0.4,3.8,0.1,7.7-1,11.4
	c-1.7-0.8-3.4-1.6-5-2.5c0.7-2.7,0.8-5.5,0.5-8.3c-0.4-3.8-1.7-7.4-3.9-10.5c-2.1-3.1-4.9-5.7-8.2-7.4c-3.3-1.7-7-2.6-10.7-2.6
	c-3.7,0.1-7.4,1.1-10.6,2.9c-3.2,1.8-6,4.5-8,7.7s-3.2,6.8-3.5,10.6C27.3,29.3,27.5,31.8,28.1,34.3z"/>
</svg>
